<?xml version="1.0" encoding="utf-8"?>
<!-- Generator: Adobe Illustrator 27.4.1, SVG Export Plug-In . SVG Version: 6.00 Build 0)  -->
<svg version="1.1" id="Layer_1" xmlns="http://www.w3.org/2000/svg" xmlns:xlink="http://www.w3.org/1999/xlink" x="0px" y="0px"
	 viewBox="0 0 800 800" style="enable-background:new 0 0 800 800;" xml:space="preserve">
<style type="text/css">
	.st0{fill:url(#SVGID_1_);stroke:#000000;stroke-width:20;stroke-miterlimit:10;}
	.st1{fill:url(#SVGID_00000146481325797007770860000009385191680536490937_);stroke:#000000;stroke-width:20;stroke-miterlimit:10;}
	.st2{fill:url(#SVGID_00000078025895220923761640000012130672495708726967_);stroke:#000000;stroke-width:20;stroke-miterlimit:10;}
	.st3{fill:#4D4D4D;stroke:#000000;stroke-width:20;stroke-miterlimit:10;}
	.st4{fill:url(#SVGID_00000164481491177895254590000001269299143836490680_);stroke:#000000;stroke-width:20;stroke-miterlimit:10;}
	.st5{fill:url(#SVGID_00000161599173769635556770000016101391277363241141_);stroke:#000000;stroke-width:20;stroke-miterlimit:10;}
	.st6{fill:url(#SVGID_00000178892288825075738360000008849159045063260083_);stroke:#000000;stroke-width:20;stroke-miterlimit:10;}
	.st7{fill:url(#SVGID_00000137815979458914810020000009942186204580713622_);stroke:#000000;stroke-width:20;stroke-miterlimit:10;}
	.st8{fill:none;stroke:#000000;stroke-width:20;stroke-miterlimit:10;}
</style>
<linearGradient id="SVGID_1_" gradientUnits="userSpaceOnUse" x1="767.413" y1="272.2998" x2="767.413" y2="272.2998" gradientTransform="matrix(1 0 0 -1 0 799.8898)">
	<stop  offset="3.370800e-02" style="stop-color:#4D4D4D"/>
	<stop  offset="0.1071" style="stop-color:#656565"/>
	<stop  offset="1" style="stop-color:#666666"/>
</linearGradient>
<path class="st0" d="M767.4,527.6"/>
<linearGradient id="SVGID_00000129925656454006692040000008419043262792812696_" gradientUnits="userSpaceOnUse" x1="42.7638" y1="393.091" x2="756.764" y2="393.091" gradientTransform="matrix(1 0 0 -1 0 799.8898)">
	<stop  offset="3.370800e-02" style="stop-color:#4D4D4D"/>
	<stop  offset="0.1071" style="stop-color:#656565"/>
	<stop  offset="1" style="stop-color:#666666"/>
</linearGradient>
<path style="fill:url(#SVGID_00000129925656454006692040000008419043262792812696_);stroke:#000000;stroke-width:20;stroke-miterlimit:10;" d="
	M209.7,710.4C129.1,680,70.6,657.4,61,653.2c-1.3-0.6-6.6-2.9-11.4-8c-4.6-4.9-5.9-9.3-6.2-10.9c-0.4-1.5-0.5-3.2-0.5-4.8v-504
	c0-12.3,10.3-22.2,23.1-22.2c189.4,0.6,378.9,1.3,568.3,1.9c0.1,0,1.3,0.1,2.8,0.2c2.8,0.2,12.1,0.8,21.2,2.8
	c10.5,2.3,19.6,6,25.7,8.9c24.3,13.4,48.6,26.8,72.9,40.1"/>
<linearGradient id="SVGID_00000091717805320126588450000010078700213751324077_" gradientUnits="userSpaceOnUse" x1="198.3413" y1="366.3504" x2="767.413" y2="366.3504" gradientTransform="matrix(1 0 0 -1 0 799.8898)">
	<stop  offset="3.370800e-02" style="stop-color:#4D4D4D"/>
	<stop  offset="0.1071" style="stop-color:#656565"/>
	<stop  offset="1" style="stop-color:#666666"/>
</linearGradient>
<path style="fill:url(#SVGID_00000091717805320126588450000010078700213751324077_);stroke:#000000;stroke-width:20;stroke-miterlimit:10;" d="
	M767.4,527.6v162.7c0,12.5-9.5,22.7-21.1,22.7H219.5c-11.7,0-21.1-10.1-21.1-22.7V176.8c0-12.5,9.5-22.7,21.1-22.7h526.8
	c11.7,0,21.1,10.1,21.1,22.7v322.7"/>
<path class="st3" d="M512.3,221.9h237.6c13.9,0,25.2,10.1,25.2,22.7v302.7c0,12.5-11.3,22.7-25.2,22.7H223.6
	c-13.9,0-25.2-10.1-25.2-22.7V244.5c0-12.5,11.3-22.7,25.2-22.7h265.9"/>
<path class="st3" d="M198.3,571c-29.7-9.4-59.4-18.8-89.1-28.2c-4-1.6-11.1-4.9-17.3-11.4c-7.8-8.2-9.8-16.7-10.4-20.5
	c-0.5-97.7-1.1-195.4-1.6-293.1c-0.1-1.1-0.3-8.5,6.7-14.3c7.1-5.9,16-5.2,17.3-5.1c22.6,5.5,45.1,11,67.7,16.5
	c3.6,1,13.5,4.4,20.2,13.1c3.3,4.3,4.7,8.5,5.3,11.4C197.5,349.9,197.9,460.5,198.3,571z"/>
<linearGradient id="SVGID_00000120547753128696213090000015710806510495260820_" gradientUnits="userSpaceOnUse" x1="326.4953" y1="262.8479" x2="326.4953" y2="262.8479" gradientTransform="matrix(1 0 0 -1 0 799.8898)">
	<stop  offset="3.370800e-02" style="stop-color:#3FA9F5"/>
	<stop  offset="0.1182" style="stop-color:#3FD3F5"/>
</linearGradient>
<path style="fill:url(#SVGID_00000120547753128696213090000015710806510495260820_);stroke:#000000;stroke-width:20;stroke-miterlimit:10;" d="
	M326.5,537"/>
<linearGradient id="SVGID_00000037675519920789951110000000022083999596963754_" gradientUnits="userSpaceOnUse" x1="198.3413" y1="403.4767" x2="767.413" y2="403.4767" gradientTransform="matrix(1 0 0 -1 0 799.8898)">
	<stop  offset="3.370800e-02" style="stop-color:#3FA9F5"/>
	<stop  offset="0.1182" style="stop-color:#3FD3F5"/>
</linearGradient>
<path style="fill:url(#SVGID_00000037675519920789951110000000022083999596963754_);stroke:#000000;stroke-width:20;stroke-miterlimit:10;" d="
	M325.6,537h-96.8c-16.9,0-30.5-10.1-30.5-22.7v-236c0-12.5,13.6-22.7,30.5-22.7h508.1c16.9,0,30.5,10.1,30.5,22.7v236
	c0,12.5-13.6,22.7-30.5,22.7H362.4"/>
<linearGradient id="SVGID_00000151543379134083753090000010256159425969681043_" gradientUnits="userSpaceOnUse" x1="113.3004" y1="335.7225" x2="113.3004" y2="335.7225">
	<stop  offset="3.370800e-02" style="stop-color:#3FA9F5"/>
	<stop  offset="0.1182" style="stop-color:#3FD3F5"/>
</linearGradient>
<path style="fill:url(#SVGID_00000151543379134083753090000010256159425969681043_);stroke:#000000;stroke-width:20;stroke-miterlimit:10;" d="
	M113.3,335.7"/>
<linearGradient id="SVGID_00000044162344192455802990000002576552974124689280_" gradientUnits="userSpaceOnUse" x1="112.9197" y1="386.0859" x2="194.5022" y2="386.0859">
	<stop  offset="3.370800e-02" style="stop-color:#3FA9F5"/>
	<stop  offset="0.1182" style="stop-color:#3FD3F5"/>
</linearGradient>
<path style="fill:url(#SVGID_00000044162344192455802990000002576552974124689280_);stroke:#000000;stroke-width:20;stroke-miterlimit:10;" d="
	M113.3,335.7c-0.1-26.8-0.2-53.5-0.4-80.3c0-0.9-0.2-6.9,4.6-11.5c4.9-4.7,11-4.2,11.9-4.1c15.5,4.4,31.1,8.8,46.6,13.3
	c2.5,0.8,9.3,3.5,13.9,10.6c2.3,3.5,3.2,6.8,3.7,9.2c0.3,86.5,0.6,173,0.9,259.5c-20.5-5.2-40.9-10.3-61.4-15.5
	c-2.8-1.3-7.6-3.9-11.9-9.2c-5.4-6.6-6.7-13.4-7.2-16.5c-0.2-43.1-0.4-86.2-0.6-129.3"/>
<line class="st8" x1="112.9" y1="128.4" x2="56.1" y2="113.3"/>
<path class="st8" d="M112.9,128.4"/>
<line class="st8" x1="135.9" y1="134.6" x2="125" y2="131.7"/>
<line class="st8" x1="209.2" y1="154.1" x2="135.9" y2="134.6"/>
<line class="st8" x1="18.9" y1="800" x2="18.9" y2="800"/>
<line class="st8" x1="18.9" y1="800" x2="18.9" y2="800"/>
<path class="st3" d="M-17.3,582.9"/>
<line class="st8" x1="688.6" y1="363.7" x2="688.6" y2="498.1"/>
<line class="st8" x1="688.6" y1="260.8" x2="688.6" y2="335.7"/>
<line class="st8" x1="762.9" y1="520.8" x2="684.5" y2="498.1"/>
<line class="st8" x1="120.7" y1="498.1" x2="692.1" y2="498.1"/>
</svg>
