<?xml version="1.0" encoding="utf-8"?>
<!-- Generator: Adobe Illustrator 27.4.1, SVG Export Plug-In . SVG Version: 6.00 Build 0)  -->
<svg version="1.1" id="Layer_1" xmlns="http://www.w3.org/2000/svg" xmlns:xlink="http://www.w3.org/1999/xlink" x="0px" y="0px"
	 viewBox="0 0 800 800" style="enable-background:new 0 0 800 800;" xml:space="preserve">
<style type="text/css">
	.st0{fill:url(#SVGID_1_);stroke:#000000;stroke-width:20;stroke-miterlimit:10;}
	.st1{fill:url(#SVGID_00000071520188406671227840000003680225558183589034_);stroke:#000000;stroke-width:20;stroke-miterlimit:10;}
	.st2{fill:url(#SVGID_00000116230811179556820550000006891211827140371357_);stroke:#000000;stroke-width:20;stroke-miterlimit:10;}
	.st3{fill:#4D4D4D;stroke:#000000;stroke-width:20;stroke-miterlimit:10;}
	.st4{fill:url(#SVGID_00000123427537166782274440000007491587247481182629_);stroke:#000000;stroke-width:20;stroke-miterlimit:10;}
	.st5{fill:url(#SVGID_00000053538494891746561650000016751853607761993372_);stroke:#000000;stroke-width:20;stroke-miterlimit:10;}
	.st6{stroke:#000000;stroke-width:20;stroke-miterlimit:10;}
	.st7{fill:url(#SVGID_00000121281605837825299930000009898967613722447255_);stroke:#000000;stroke-width:20;stroke-miterlimit:10;}
	.st8{fill:url(#SVGID_00000082343552818278675240000010082850594197483950_);stroke:#000000;stroke-width:20;stroke-miterlimit:10;}
	.st9{fill:none;stroke:#000000;stroke-width:20;stroke-miterlimit:10;}
</style>
<linearGradient id="SVGID_1_" gradientUnits="userSpaceOnUse" x1="762.3052" y1="272.2998" x2="762.3052" y2="272.2998" gradientTransform="matrix(1 0 0 -1 0 799.8898)">
	<stop  offset="3.370800e-02" style="stop-color:#4D4D4D"/>
	<stop  offset="0.1071" style="stop-color:#656565"/>
	<stop  offset="1" style="stop-color:#666666"/>
</linearGradient>
<path class="st0" d="M762.3,527.6"/>
<linearGradient id="SVGID_00000069367825695282652500000011302582616190944917_" gradientUnits="userSpaceOnUse" x1="37.6561" y1="393.091" x2="751.6562" y2="393.091" gradientTransform="matrix(1 0 0 -1 0 799.8898)">
	<stop  offset="3.370800e-02" style="stop-color:#4D4D4D"/>
	<stop  offset="0.1071" style="stop-color:#656565"/>
	<stop  offset="1" style="stop-color:#666666"/>
</linearGradient>
<path style="fill:url(#SVGID_00000069367825695282652500000011302582616190944917_);stroke:#000000;stroke-width:20;stroke-miterlimit:10;" d="
	M204.6,710.4C124,680,65.4,657.4,55.8,653.2c-1.3-0.6-6.6-2.9-11.4-8c-4.6-4.9-5.9-9.3-6.2-10.9c-0.4-1.5-0.5-3.2-0.5-4.8v-504
	c0-12.3,10.3-22.2,23.1-22.2c189.4,0.6,378.9,1.3,568.3,1.9c0.1,0,1.3,0.1,2.8,0.2c2.8,0.2,12.1,0.8,21.2,2.8
	c10.5,2.3,19.6,6,25.7,8.9c24.3,13.4,48.6,26.8,72.9,40.1"/>
<linearGradient id="SVGID_00000035514113839507463840000011633831128524383414_" gradientUnits="userSpaceOnUse" x1="193.2335" y1="366.3504" x2="762.3052" y2="366.3504" gradientTransform="matrix(1 0 0 -1 0 799.8898)">
	<stop  offset="3.370800e-02" style="stop-color:#4D4D4D"/>
	<stop  offset="0.1071" style="stop-color:#656565"/>
	<stop  offset="1" style="stop-color:#666666"/>
</linearGradient>
<path style="fill:url(#SVGID_00000035514113839507463840000011633831128524383414_);stroke:#000000;stroke-width:20;stroke-miterlimit:10;" d="
	M762.3,527.6v162.7c0,12.5-9.5,22.7-21.1,22.7H214.4c-11.7,0-21.1-10.1-21.1-22.7V176.8c0-12.5,9.5-22.7,21.1-22.7h526.8
	c11.7,0,21.1,10.1,21.1,22.7v322.7"/>
<path class="st3" d="M475.3,221.9h213.4c12.5,0,22.7,10.1,22.7,22.7v302.7c0,12.5-10.1,22.7-22.7,22.7H215.9
	c-12.5,0-22.7-10.1-22.7-22.7V244.5c0-12.5,10.1-22.7,22.7-22.7h238.9"/>
<path class="st3" d="M193.2,571c-29.7-9.4-59.4-18.8-89.1-28.2c-4-1.6-11.1-4.9-17.3-11.4c-7.8-8.2-9.8-16.7-10.4-20.5
	c-0.5-97.7-1.1-195.4-1.6-293.1c-0.1-1.1-0.3-8.5,6.7-14.3c7.1-5.9,16-5.2,17.3-5.1c22.6,5.5,45.1,11,67.7,16.5
	c3.6,1,13.5,4.4,20.2,13.1c3.3,4.3,4.7,8.5,5.3,11.4C192.4,349.9,192.8,460.5,193.2,571z"/>
<linearGradient id="SVGID_00000047765799702152925790000015450627152623838872_" gradientUnits="userSpaceOnUse" x1="321.3875" y1="262.8479" x2="321.3875" y2="262.8479" gradientTransform="matrix(1 0 0 -1 0 799.8898)">
	<stop  offset="3.370800e-02" style="stop-color:#3FA9F5"/>
	<stop  offset="0.1182" style="stop-color:#3FD3F5"/>
</linearGradient>
<path style="fill:url(#SVGID_00000047765799702152925790000015450627152623838872_);stroke:#000000;stroke-width:20;stroke-miterlimit:10;" d="
	M321.4,537"/>
<linearGradient id="SVGID_00000143586935662716696520000015156784476325705903_" gradientUnits="userSpaceOnUse" x1="193.2335" y1="403.4767" x2="649.4787" y2="403.4767" gradientTransform="matrix(1 0 0 -1 0 799.8898)">
	<stop  offset="3.370800e-02" style="stop-color:#3FA9F5"/>
	<stop  offset="0.1182" style="stop-color:#3FD3F5"/>
</linearGradient>
<path style="fill:url(#SVGID_00000143586935662716696520000015156784476325705903_);stroke:#000000;stroke-width:20;stroke-miterlimit:10;" d="
	M295.3,537h-77.6c-13.5,0-24.5-10.1-24.5-22.7v-236c0-12.5,10.9-22.7,24.5-22.7H625c13.5,0,24.5,10.1,24.5,22.7v236
	c0,12.5-10.9,22.7-24.5,22.7H324.8"/>
<circle class="st6" cx="680.6" cy="391.9" r="10.2"/>
<linearGradient id="SVGID_00000106110950786954228820000016246922137757346974_" gradientUnits="userSpaceOnUse" x1="108.1926" y1="335.7225" x2="108.1926" y2="335.7225">
	<stop  offset="3.370800e-02" style="stop-color:#3FA9F5"/>
	<stop  offset="0.1182" style="stop-color:#3FD3F5"/>
</linearGradient>
<path style="fill:url(#SVGID_00000106110950786954228820000016246922137757346974_);stroke:#000000;stroke-width:20;stroke-miterlimit:10;" d="
	M108.2,335.7"/>
<linearGradient id="SVGID_00000026873156190538824810000013142261115289233547_" gradientUnits="userSpaceOnUse" x1="107.8119" y1="386.0859" x2="189.3944" y2="386.0859">
	<stop  offset="3.370800e-02" style="stop-color:#3FA9F5"/>
	<stop  offset="0.1182" style="stop-color:#3FD3F5"/>
</linearGradient>
<path style="fill:url(#SVGID_00000026873156190538824810000013142261115289233547_);stroke:#000000;stroke-width:20;stroke-miterlimit:10;" d="
	M108.2,335.7c-0.1-26.8-0.2-53.5-0.4-80.3c0-0.9-0.2-6.9,4.6-11.5c4.9-4.7,11-4.2,11.9-4.1c15.5,4.4,31.1,8.8,46.6,13.3
	c2.5,0.8,9.3,3.5,13.9,10.6c2.3,3.5,3.2,6.8,3.7,9.2c0.3,86.5,0.6,173,0.9,259.5c-20.5-5.2-40.9-10.3-61.4-15.5
	c-2.8-1.3-7.6-3.9-11.9-9.2c-5.4-6.6-6.7-13.4-7.2-16.5c-0.2-43.1-0.4-86.2-0.6-129.3"/>
<line class="st9" x1="107.8" y1="128.4" x2="51" y2="113.3"/>
<path class="st9" d="M107.8,128.4"/>
<line class="st9" x1="130.8" y1="134.6" x2="119.8" y2="131.7"/>
<line class="st9" x1="204.1" y1="154.1" x2="130.8" y2="134.6"/>
<line class="st9" x1="13.8" y1="800" x2="13.8" y2="800"/>
<line class="st9" x1="13.8" y1="800" x2="13.8" y2="800"/>
<path class="st3" d="M-22.4,582.9"/>
</svg>
