<?xml version="1.0" encoding="utf-8"?>
<!-- Generator: Adobe Illustrator 27.4.1, SVG Export Plug-In . SVG Version: 6.00 Build 0)  -->
<svg version="1.1" id="Layer_1" xmlns="http://www.w3.org/2000/svg" xmlns:xlink="http://www.w3.org/1999/xlink" x="0px" y="0px"
	 viewBox="0 0 800 800" style="enable-background:new 0 0 800 800;" xml:space="preserve">
<style type="text/css">
	.st0{display:none;fill:url(#SVGID_1_);}
	.st1{display:none;fill:url(#SVGID_00000013160929893967175240000009860427490130451641_);}
	.st2{display:none;fill:#4D4D4D;}
	.st3{display:none;fill:#E30613;}
	.st4{fill:#FFFFFF;}
	.st5{fill:#1D1D1B;}
	.st6{fill:#5D5D5C;}
</style>
<linearGradient id="SVGID_1_" gradientUnits="userSpaceOnUse" x1="62" y1="379.9898" x2="585.7" y2="379.9898" gradientTransform="matrix(1 0 0 -1 0 799.8898)">
	<stop  offset="3.370800e-02" style="stop-color:#4D4D4D"/>
	<stop  offset="0.1071" style="stop-color:#656565"/>
	<stop  offset="1" style="stop-color:#666666"/>
</linearGradient>
<rect x="62" y="208.7" class="st0" width="523.7" height="422.4"/>
<linearGradient id="SVGID_00000031198745748122168070000004427249754625450647_" gradientUnits="userSpaceOnUse" x1="132.6" y1="328.3996" x2="451.8449" y2="328.3996" gradientTransform="matrix(1 0 0 -1 0 799.8898)">
	<stop  offset="3.370800e-02" style="stop-color:#3FA9F5"/>
	<stop  offset="0.1182" style="stop-color:#3FD3F5"/>
</linearGradient>
<path style="display:none;fill:url(#SVGID_00000031198745748122168070000004427249754625450647_);" d="M132.6,639.8
	c6.8,0.7,13.7,1.4,20.6,2.1c90.1,8.4,176.9,9.2,260,4.1c55.9-146.6,51.6-279-15.8-330.9c-11.5-8.8-26.8-16.9-47.5-21.3
	c-68.6,18.1-137.1,36.2-205.7,54.3C140.4,445.3,136.5,542.5,132.6,639.8z"/>
<rect x="35.4" y="130.7" class="st2" width="604.9" height="63.3"/>
<path class="st3" d="M433,631.1H242.6V507.9c37.1-2.8,74.3-5.6,111.4-8.4C380.4,543.3,406.7,587.2,433,631.1z"/>
<path d="M629.5,552.3V229.1h41.9V96.3H0.1v132.8H42v396H0v43.8c140.3,0,280.6,0,420.9,0c83.5,0,167.1,0,250.6,0
	c-14-14.6-28-29.2-42-43.8V552.3 M412.7,575.3c-1.4,15.6-5.7,22.7-7.7,25.6c0,0-2.3,3.3-5.3,6.2c-7.8,7.6-28.5,18-64,18
	c-29.6,0-51.7-6.2-64-18c-8.1-7.8-12.5-18.5-13-31.8c-0.4-10.8,0.9-23.1,2.5-34.1l30.8,23.1l43.6-63l43.6,63
	c6.3-4.7,12.5-9.4,18.8-14.1c4-3,8-6,12-9C413.6,555.7,413.4,567.6,412.7,575.3z M500.5,625.1h-58.9c9.2-13.7,14.3-30,14.9-48.3
	c1.2-34.9-10.1-77.8-10.6-79.6l-8.4-31.4c-13.5,10.1-26.9,20.3-40.4,30.4c-2.5,1.9-5.1,3.8-7.6,5.7c-17.9-25.8-35.8-51.7-53.7-77.5
	L282.1,502L234,465.9l-8.4,31.4c-0.5,1.8-11.8,44.7-10.6,79.6c0.6,18.2,5.8,34.6,14.9,48.3H171V376.1c34.8-5,61.3-21.1,85.1-35.6
	c26.1-15.9,48.7-29.6,79.6-29.6s53.5,13.7,79.6,29.6c11.1,6.8,14.3,9.2,26.2,15.2c23.4,11.8,44.4,17.5,59,20.4
	C500.5,459.1,500.5,542.1,500.5,625.1L500.5,625.1z M585.7,572.5v52.6h-41.4V333.9h-21.9c-7.4-0.3-18.6-1.2-31.5-4.6
	c-26.5-7-43.3-19.8-52.8-26.2c-2.8-1.9-52.8-36-102.3-36c-43.2,0-74.6,19.1-102.3,36c-26,15.8-50.6,30.8-84.3,30.8h-21.9v291.2H85.8
	v-396h499.9V572.5c0-68.4,0-136.7,0-205.1 M627.6,185.3H43.9v-45.2h583.7L627.6,185.3L627.6,185.3z"/>
<path class="st4" d="M549.2,354.3c0.6,18.9,0.2,46-0.5,86.2c-0.6,40,4.8,32.4,7.1,79.4c2.2,44.7-0.3,59.6,8,65.8
	c14.2,10.5,38.8-20.3,73.7-39.7c27.1-15.1,70.2-28.8,136.2-14.8c-2.4,74-4.9,148.1-7.3,222.1c-157.7,62.6-302.6,36.7-360.4-61.3
	c-11.6-19.8-24-49.6-27.7-93.8c0.2-49.2,0.3-98.3,0.5-147.4c2.9-26.7,14.5-107.5,68.4-155.3"/>
<path class="st4" d="M448.3,310c2.1-1.6,4.3-3.2,6.5-4.7c16.4-11.3,56.5-29.7,66.3-18.9c1.9,2.1,1.5,4,3.7,10.5
	c5.1,15.2,14,24.3,17.1,28.1c5.5,6.8,7.9,16.4,8.7,35.6"/>
<path class="st5" d="M482.4,328.3c0,0-62.8,52.1-62.8,114.8c0,38.9,28.1,70.4,62.8,70.4s62.8-31.6,62.8-70.4
	C545.1,380.4,482.4,328.3,482.4,328.3z M482.4,491.1c-17.5,0-31.8-16-31.8-35.8c0-31.8,31.8-58.3,31.8-58.3s31.8,26.5,31.8,58.3
	C514.2,475.1,499.9,491.1,482.4,491.1z M797.7,644c-17.4-35.7-54.1-60.3-96.5-60.3c-42.3,0-79,24.6-96.5,60.3h-53.8
	c-12.5,0-22.7-10.1-22.7-22.7v-23.7H559v-69.5H405v69.5h29v23.7c0,69.6,53.6,117.2,117.2,117.2h54.2c17.5,35.3,54.1,59.6,96.1,59.6
	c42,0,78.4-24.4,96.1-59.6L797.7,644z M776.3,676.7h-31.8c-6-18.3-23.1-31.3-43.2-31.3c-2.1,0-4.2,0.1-6.4,0.5L678.8,618
	c7.1-2.2,14.7-3.4,22.5-3.4C738.7,614.6,769.8,641.4,776.3,676.7z M625,690.9c0-23.2,10.5-44.1,26.9-58.1l15.9,27.4
	c-7.3,8.1-11.9,18.8-11.9,30.6c0,10.8,3.9,20.8,10.2,28.7l-16,27.8C634.7,733.4,625,713.3,625,690.9z M701.3,767.3
	c-8.7,0-17-1.5-24.7-4.1l15.9-27.6c2.8,0.6,5.8,0.8,8.8,0.8c19.2,0,35.7-11.9,42.3-28.7h32.2C768.2,741.8,737.7,767.3,701.3,767.3z"
	/>
<path class="st4" d="M993.8,132.1"/>
<path class="st6" d="M224.8,800"/>
<path class="st4" d="M876.9,214.6"/>
<path class="st4" d="M808.8,295.8"/>
</svg>
