<?xml version="1.0" encoding="utf-8"?>
<!-- Generator: Adobe Illustrator 27.4.1, SVG Export Plug-In . SVG Version: 6.00 Build 0)  -->
<svg version="1.1" id="Layer_1" xmlns="http://www.w3.org/2000/svg" xmlns:xlink="http://www.w3.org/1999/xlink" x="0px" y="0px"
	 viewBox="0 0 800 800" style="enable-background:new 0 0 800 800;" xml:space="preserve">
<style type="text/css">
	.st0{fill:url(#SVGID_1_);stroke:#000000;stroke-width:20;stroke-miterlimit:10;}
	.st1{fill:#4D4D4D;stroke:#000000;stroke-width:20;stroke-miterlimit:10;}
	.st2{fill:url(#SVGID_00000002375379889609083010000014805379300932906643_);stroke:#000000;stroke-width:20;stroke-miterlimit:10;}
	.st3{fill:url(#SVGID_00000139279389897465089200000001915166902397933706_);stroke:#000000;stroke-width:20;stroke-miterlimit:10;}
	.st4{fill:url(#SVGID_00000042715737369141079540000018147102109166165674_);stroke:#000000;stroke-width:20;stroke-miterlimit:10;}
	.st5{stroke:#000000;stroke-width:20;stroke-miterlimit:10;}
</style>
<linearGradient id="SVGID_1_" gradientUnits="userSpaceOnUse" x1="711.9226" y1="305.6287" x2="711.9226" y2="305.6287" gradientTransform="matrix(1 0 0 -1 0 799.8898)">
	<stop  offset="3.370800e-02" style="stop-color:#4D4D4D"/>
	<stop  offset="0.1071" style="stop-color:#656565"/>
	<stop  offset="1" style="stop-color:#666666"/>
</linearGradient>
<path class="st0" d="M711.9,494.3"/>
<rect x="88.1" y="628.2" class="st1" width="62.5" height="139.4"/>
<rect x="649.4" y="628.2" class="st1" width="62.5" height="139.4"/>
<linearGradient id="SVGID_00000180329971568942702080000010884398370261164944_" gradientUnits="userSpaceOnUse" x1="88.0774" y1="401.8226" x2="711.9226" y2="401.8226" gradientTransform="matrix(1 0 0 -1 0 799.8898)">
	<stop  offset="3.370800e-02" style="stop-color:#4D4D4D"/>
	<stop  offset="0.1071" style="stop-color:#656565"/>
	<stop  offset="1" style="stop-color:#666666"/>
</linearGradient>
<path style="fill:url(#SVGID_00000180329971568942702080000010884398370261164944_);stroke:#000000;stroke-width:20;stroke-miterlimit:10;" d="
	M711.9,494.3v166.4c0,12.8-10.4,23.2-23.2,23.2H111.2c-12.8,0-23.2-10.4-23.2-23.2V135.4c0-12.8,10.4-23.2,23.2-23.2h577.5
	c12.8,0,23.2,10.4,23.2,23.2v330.1"/>
<path class="st1" d="M418.3,181.6h218.3c12.8,0,23.2,10.4,23.2,23.2v309.6c0,12.8-10.4,23.2-23.2,23.2H153
	c-12.8,0-23.2-10.4-23.2-23.2V204.7c0-12.8,10.4-23.2,23.2-23.2h244.3"/>
<linearGradient id="SVGID_00000036243197321459477030000001992239319050961075_" gradientUnits="userSpaceOnUse" x1="260.9565" y1="295.9614" x2="260.9565" y2="295.9614" gradientTransform="matrix(1 0 0 -1 0 799.8898)">
	<stop  offset="3.370800e-02" style="stop-color:#3FA9F5"/>
	<stop  offset="0.1182" style="stop-color:#3FD3F5"/>
</linearGradient>
<path style="fill:url(#SVGID_00000036243197321459477030000001992239319050961075_);stroke:#000000;stroke-width:20;stroke-miterlimit:10;" d="
	M261,503.9"/>
<linearGradient id="SVGID_00000127730229079692367170000000336384810062857868_" gradientUnits="userSpaceOnUse" x1="164.2835" y1="439.795" x2="596.5247" y2="439.795" gradientTransform="matrix(1 0 0 -1 0 799.8898)">
	<stop  offset="3.370800e-02" style="stop-color:#3FA9F5"/>
	<stop  offset="0.1182" style="stop-color:#3FD3F5"/>
</linearGradient>
<path style="fill:url(#SVGID_00000127730229079692367170000000336384810062857868_);stroke:#000000;stroke-width:20;stroke-miterlimit:10;" d="
	M261,503.9h-73.5c-12.8,0-23.2-10.4-23.2-23.2V239.4c0-12.8,10.4-23.2,23.2-23.2h385.9c12.8,0,23.2,10.4,23.2,23.2v241.3
	c0,12.8-10.4,23.2-23.2,23.2H288.9"/>
<circle class="st5" cx="628.4" cy="355.4" r="10.5"/>
<rect x="315.6" y="66" class="st1" width="168.8" height="83.9"/>
<rect x="328.3" y="32.4" class="st1" width="143.5" height="58.5"/>
</svg>
