<?xml version="1.0" encoding="utf-8"?>
<!-- Generator: Adobe Illustrator 27.4.1, SVG Export Plug-In . SVG Version: 6.00 Build 0)  -->
<svg version="1.1" id="Layer_1" xmlns="http://www.w3.org/2000/svg" xmlns:xlink="http://www.w3.org/1999/xlink" x="0px" y="0px"
	 viewBox="0 0 800 800" style="enable-background:new 0 0 800 800;" xml:space="preserve">
<style type="text/css">
	.st0{fill:url(#SVGID_1_);stroke:#000000;stroke-width:20;stroke-miterlimit:10;}
	.st1{fill:url(#SVGID_00000052806422471407430800000013763902882238838461_);stroke:#000000;stroke-width:20;stroke-miterlimit:10;}
	.st2{fill:#4D4D4D;stroke:#000000;stroke-width:20;stroke-miterlimit:10;}
	.st3{fill:url(#SVGID_00000079445459715168949400000013704831265746910911_);stroke:#000000;stroke-width:20;stroke-miterlimit:10;}
	.st4{fill:url(#SVGID_00000007420497038971955770000013553453320088380837_);stroke:#000000;stroke-width:20;stroke-miterlimit:10;}
	.st5{stroke:#000000;stroke-width:20;stroke-miterlimit:10;}
</style>
<linearGradient id="SVGID_1_" gradientUnits="userSpaceOnUse" x1="764.0764" y1="510.444" x2="764.0764" y2="510.444">
	<stop  offset="3.370800e-02" style="stop-color:#4D4D4D"/>
	<stop  offset="0.1071" style="stop-color:#656565"/>
	<stop  offset="1" style="stop-color:#666666"/>
</linearGradient>
<path class="st0" d="M764.1,510.4"/>
<linearGradient id="SVGID_00000167382936355321885800000005372347573312647313_" gradientUnits="userSpaceOnUse" x1="47.8478" y1="400" x2="764.0764" y2="400">
	<stop  offset="3.370800e-02" style="stop-color:#4D4D4D"/>
	<stop  offset="0.1071" style="stop-color:#656565"/>
	<stop  offset="1" style="stop-color:#666666"/>
</linearGradient>
<path style="fill:url(#SVGID_00000167382936355321885800000005372347573312647313_);stroke:#000000;stroke-width:20;stroke-miterlimit:10;" d="
	M764.1,510.4v191.1c0,14.7-11.9,26.6-26.6,26.6H74.4c-14.7,0-26.6-11.9-26.6-26.6V98.4c0-14.7,11.9-26.6,26.6-26.6h663.1
	c14.7,0,26.6,11.9,26.6,26.6v379"/>
<path class="st2" d="M427,151.4h250.6c14.7,0,26.6,11.9,26.6,26.6v355.5c0,14.7-11.9,26.6-26.6,26.6H122.4
	c-14.7,0-26.6-11.9-26.6-26.6V177.9c0-14.7,11.9-26.6,26.6-26.6h280.5"/>
<linearGradient id="SVGID_00000109007772515853578450000010580967637689704589_" gradientUnits="userSpaceOnUse" x1="246.3185" y1="521.4993" x2="246.3185" y2="521.4993">
	<stop  offset="3.370800e-02" style="stop-color:#3FA9F5"/>
	<stop  offset="0.1182" style="stop-color:#3FD3F5"/>
</linearGradient>
<path style="fill:url(#SVGID_00000109007772515853578450000010580967637689704589_);stroke:#000000;stroke-width:20;stroke-miterlimit:10;" d="
	M246.3,521.5"/>
<linearGradient id="SVGID_00000090973350924840188650000000088484507708052149_" gradientUnits="userSpaceOnUse" x1="135.3376" y1="356.3793" x2="631.5414" y2="356.3793">
	<stop  offset="3.370800e-02" style="stop-color:#3FA9F5"/>
	<stop  offset="0.1182" style="stop-color:#3FD3F5"/>
</linearGradient>
<path style="fill:url(#SVGID_00000090973350924840188650000000088484507708052149_);stroke:#000000;stroke-width:20;stroke-miterlimit:10;" d="
	M246.3,521.5h-84.4c-14.7,0-26.6-11.9-26.6-26.6V217.8c0-14.7,11.9-26.6,26.6-26.6H605c14.7,0,26.6,11.9,26.6,26.6v277.1
	c0,14.7-11.9,26.6-26.6,26.6H278.4"/>
<circle class="st5" cx="668.2" cy="351" r="12"/>
</svg>
