<?xml version="1.0" encoding="utf-8"?>
<!-- Generator: Adobe Illustrator 27.4.1, SVG Export Plug-In . SVG Version: 6.00 Build 0)  -->
<svg version="1.1" id="Layer_1" xmlns="http://www.w3.org/2000/svg" xmlns:xlink="http://www.w3.org/1999/xlink" x="0px" y="0px"
	 viewBox="0 0 800 800" style="enable-background:new 0 0 800 800;" xml:space="preserve">
<style type="text/css">
	.st0{display:none;fill:url(#SVGID_1_);}
	.st1{display:none;fill:url(#SVGID_00000116211228648512520480000016597263575657027227_);}
	.st2{display:none;fill:#4D4D4D;}
	.st3{display:none;fill:#E30613;}
	.st4{fill:#FFFFFF;}
	.st5{fill:#5D5D5C;}
</style>
<linearGradient id="SVGID_1_" gradientUnits="userSpaceOnUse" x1="61.9618" y1="419.8707" x2="585.691" y2="419.8707">
	<stop  offset="3.370800e-02" style="stop-color:#4D4D4D"/>
	<stop  offset="0.1071" style="stop-color:#656565"/>
	<stop  offset="1" style="stop-color:#666666"/>
</linearGradient>
<rect x="62" y="208.7" class="st0" width="523.7" height="422.4"/>
<linearGradient id="SVGID_00000125576988768819236440000007764632467989012893_" gradientUnits="userSpaceOnUse" x1="132.586" y1="471.4428" x2="451.8781" y2="471.4428">
	<stop  offset="3.370800e-02" style="stop-color:#3FA9F5"/>
	<stop  offset="0.1182" style="stop-color:#3FD3F5"/>
</linearGradient>
<path style="display:none;fill:url(#SVGID_00000125576988768819236440000007764632467989012893_);" d="M132.6,639.8
	c6.8,0.7,13.7,1.4,20.6,2.1c90.1,8.4,176.9,9.2,260,4.1c55.9-146.6,51.6-279-15.8-330.9c-11.5-8.8-26.8-16.9-47.5-21.3
	c-68.6,18.1-137.1,36.2-205.7,54.3C140.4,445.3,136.5,542.5,132.6,639.8z"/>
<rect x="35.4" y="130.7" class="st2" width="604.9" height="63.3"/>
<path class="st3" d="M433,631.1H242.6V507.9c37.1-2.8,74.3-5.6,111.4-8.4C380.4,543.3,406.7,587.2,433,631.1z"/>
<path d="M629.5,552.3V229.1h41.9V96.3H0.1v132.8H42v396H0v43.8c140.3,0,280.6,0,420.9,0c83.5,0,167.1,0,250.6,0
	c-14-14.6-28-29.2-42-43.8V552.3 M412.7,575.3c-1.4,15.6-5.7,22.7-7.7,25.6c0,0-2.3,3.3-5.3,6.2c-7.8,7.6-28.5,18-64,18
	c-29.6,0-51.7-6.2-64-18c-8.1-7.8-12.5-18.5-13-31.8c-0.4-10.8,0.9-23.1,2.5-34.1l30.8,23.1l43.6-63l43.6,63
	c6.3-4.7,12.5-9.4,18.8-14.1c4-3,8-6,12-9C413.6,555.7,413.4,567.6,412.7,575.3z M500.5,625.1h-58.9c9.2-13.7,14.3-30,14.9-48.3
	c1.2-34.9-10.1-77.8-10.6-79.6l-8.4-31.4c-13.5,10.1-26.9,20.3-40.4,30.4c-2.5,1.9-5.1,3.8-7.6,5.7c-17.9-25.8-35.8-51.7-53.7-77.5
	L282.1,502L234,465.9l-8.4,31.4c-0.5,1.8-11.8,44.7-10.6,79.6c0.6,18.2,5.8,34.6,14.9,48.3H171V376.1c34.8-5,61.3-21.1,85.1-35.6
	c26.1-15.9,48.7-29.6,79.6-29.6s53.5,13.7,79.6,29.6c11.1,6.8,14.3,9.2,26.2,15.2c23.4,11.8,44.4,17.5,59,20.4
	C500.5,459.1,500.5,542.1,500.5,625.1L500.5,625.1z M585.7,572.5v52.6h-41.4V333.9h-21.9c-7.4-0.3-18.6-1.2-31.5-4.6
	c-26.5-7-43.3-19.8-52.8-26.2c-2.8-1.9-52.8-36-102.3-36c-43.2,0-74.6,19.1-102.3,36c-26,15.8-50.6,30.8-84.3,30.8h-21.9v291.2H85.8
	v-396h499.9V572.5c0-68.4,0-136.7,0-205.1 M627.6,185.3H43.9v-45.2h583.7V185.3z"/>
<rect x="528.4" y="335.2" class="st4" width="264.8" height="229.1"/>
<path class="st4" d="M703.2,443.6c6.4,3.7,73.1,43.3,67.4,91.2c-1.6,13.8-8.9,25.1-28.5,44.3c-75.5,74.1-172.2,107.2-209.5,89.9
	c-4.8-2.2-8.3-5.1-10.6-8.7c-14.9-22.7,19.6-67.1,20.3-67c0.6,0.1-20.6,38.1,8.2,50.1c0.5,0.2,12.8,5.1,26.2,3.3
	c21.6-2.9,19.6-19.8,47.4-33.7c14.1-7.1,28.7-9.9,40.4-12.1c24.6-4.6,56-5.8,95.8,0.5c-2.2,56.4-4.4,112.8-6.6,169.2
	c-78.7,24-154.4,31.2-217.6,23.1c-42.9-5.5-89.8-56.1-143.1-68.9c-4.8-1.2-16.9-3.8-26.8-13.3c-14-13.3-14.8-31.4-15.1-59.6
	c-0.6-47.2,0.5-102.1,15.1-154.1c1.3-4.6,3.3-11.2,8.3-18.8c4.2-6.3,25.8-20.5,57.8-34.1"/>
<path class="st4" d="M448.3,310c2.1-1.6,4.3-3.2,6.5-4.7c16.4-11.3,56.5-29.7,66.3-18.9c1.9,2.1,1.5,4,3.7,10.5
	c5.1,15.2,14,24.3,17.1,28.1c5.5,6.8,7.9,16.4,8.7,35.6"/>
<path class="st4" d="M993.8,132.1"/>
<path class="st5" d="M224.8,800"/>
<path class="st4" d="M876.9,214.6"/>
<path class="st4" d="M808.8,295.8"/>
<g>
	<path d="M440.7,666l-40.3,53.9c-6.2,8.4-9.9,18.7-9.9,29.9c0,27.7,22.5,50.2,50.2,50.2c27.7,0,50.2-22.5,50.2-50.2
		c0-11.2-3.7-21.6-9.9-29.9L440.7,666z"/>
	<rect x="750" y="478.9" width="50" height="91.4"/>
	<path d="M395,573.2V636h91.4v-62.8c0-1.6,1.3-2.9,2.9-2.9h85v-91.4h-85C437.3,478.9,395,521.2,395,573.2z"/>
	<polygon points="584.4,403.9 647.2,403.9 647.2,458.9 604.4,458.9 604.4,590.3 720,590.3 720,458.9 677.2,458.9 677.2,403.9 
		740,403.9 740,373.9 584.4,373.9 	"/>
</g>
</svg>
